<?xml version="1.0" encoding="UTF-8" standalone="no"?>
<!DOCTYPE svg PUBLIC "-//W3C//DTD SVG 1.1//EN"
 "http://www.w3.org/Graphics/SVG/1.1/DTD/svg11.dtd">
<!-- Generated by graphviz version 2.43.0 (0)
 -->
<!-- Title: a_graph Pages: 1 -->
<svg width="216pt" height="119pt"
 viewBox="0.00 0.00 215.50 119.00" xmlns="http://www.w3.org/2000/svg" xmlns:xlink="http://www.w3.org/1999/xlink">
<g id="graph0" class="graph" transform="scale(1 1) rotate(0) translate(4 115)">
<title>a_graph</title>
<polygon fill="white" stroke="transparent" points="-4,4 -4,-115 211.5,-115 211.5,4 -4,4"/>
<!-- T23 -->
<g id="node1" class="node">
<title>T23</title>
<polygon fill="none" stroke="#0058ad" points="0,-81.5 0,-110.5 171,-110.5 171,-81.5 0,-81.5"/>
<text text-anchor="middle" x="28" y="-92.3" font-family="Times,serif" font-size="14.00" fill="#0058ad">w 8 2</text>
<polyline fill="none" stroke="#0058ad" points="56,-81.5 56,-110.5 "/>
<text text-anchor="middle" x="84" y="-92.3" font-family="Times,serif" font-size="14.00" fill="#0058ad">w 6 1</text>
<polyline fill="none" stroke="#0058ad" points="112,-81.5 112,-110.5 "/>
<text text-anchor="middle" x="141.5" y="-92.3" font-family="Times,serif" font-size="14.00" fill="#0058ad">r 7 nil</text>
</g>
<!-- T26 -->
<g id="node2" class="node">
<title>T26</title>
<polygon fill="none" stroke="#0058ad" points="33.5,-0.5 33.5,-29.5 207.5,-29.5 207.5,-0.5 33.5,-0.5"/>
<text text-anchor="middle" x="63" y="-11.3" font-family="Times,serif" font-size="14.00" fill="#0058ad">r 8 nil</text>
<polyline fill="none" stroke="#0058ad" points="92.5,-0.5 92.5,-29.5 "/>
<text text-anchor="middle" x="120.5" y="-11.3" font-family="Times,serif" font-size="14.00" fill="#0058ad">w 7 1</text>
<polyline fill="none" stroke="#0058ad" points="148.5,-0.5 148.5,-29.5 "/>
<text text-anchor="middle" x="178" y="-11.3" font-family="Times,serif" font-size="14.00" fill="#0058ad">r 8 nil</text>
</g>
<!-- T23&#45;&gt;T26 -->
<g id="edge1" class="edge">
<title>T23:f2&#45;&gt;T26:f1</title>
<path fill="none" stroke="#5b00c0" d="M141.5,-81C141.5,-60.32 126.55,-55.68 121.88,-40.01"/>
<polygon fill="#5b00c0" stroke="#5b00c0" points="125.33,-39.43 120.5,-30 118.4,-40.38 125.33,-39.43"/>
<text text-anchor="middle" x="145" y="-51.8" font-family="Times,serif" font-size="14.00" fill="#5b00c0">rw</text>
</g>
<!-- T26&#45;&gt;T23 -->
<g id="edge2" class="edge">
<title>T26:f0&#45;&gt;T23:f0</title>
<path fill="none" stroke="#5b00c0" d="M62.5,-30C62.5,-53.63 36.65,-54.01 29.38,-71.09"/>
<polygon fill="#5b00c0" stroke="#5b00c0" points="25.93,-70.52 27.5,-81 32.8,-71.83 25.93,-70.52"/>
<text text-anchor="middle" x="63" y="-51.8" font-family="Times,serif" font-size="14.00" fill="#5b00c0">rw</text>
</g>
</g>
</svg>
