<?xml version="1.0" encoding="UTF-8" standalone="no"?>
<!DOCTYPE svg PUBLIC "-//W3C//DTD SVG 1.1//EN"
 "http://www.w3.org/Graphics/SVG/1.1/DTD/svg11.dtd">
<!-- Generated by graphviz version 2.43.0 (0)
 -->
<!-- Title: a_graph Pages: 1 -->
<svg width="354pt" height="119pt"
 viewBox="0.00 0.00 354.00 119.00" xmlns="http://www.w3.org/2000/svg" xmlns:xlink="http://www.w3.org/1999/xlink">
<g id="graph0" class="graph" transform="scale(1 1) rotate(0) translate(4 115)">
<title>a_graph</title>
<polygon fill="white" stroke="transparent" points="-4,4 -4,-115 350,-115 350,4 -4,4"/>
<!-- T20437 -->
<g id="node1" class="node">
<title>T20437</title>
<polygon fill="none" stroke="#0058ad" points="0,-81.5 0,-110.5 346,-110.5 346,-81.5 0,-81.5"/>
<text text-anchor="middle" x="37" y="-92.3" font-family="Times,serif" font-size="14.00" fill="#0058ad">w 93 76</text>
<polyline fill="none" stroke="#0058ad" points="74,-81.5 74,-110.5 "/>
<text text-anchor="middle" x="106.5" y="-92.3" font-family="Times,serif" font-size="14.00" fill="#0058ad">w 94 2</text>
<polyline fill="none" stroke="#0058ad" points="139,-81.5 139,-110.5 "/>
<text text-anchor="middle" x="171.5" y="-92.3" font-family="Times,serif" font-size="14.00" fill="#0058ad">w 94 3</text>
<polyline fill="none" stroke="#0058ad" points="204,-81.5 204,-110.5 "/>
<text text-anchor="middle" x="238" y="-92.3" font-family="Times,serif" font-size="14.00" fill="#0058ad">r 95 nil</text>
<polyline fill="none" stroke="#0058ad" points="272,-81.5 272,-110.5 "/>
<text text-anchor="middle" x="309" y="-92.3" font-family="Times,serif" font-size="14.00" fill="#0058ad">w 93 77</text>
</g>
<!-- T20446 -->
<g id="node2" class="node">
<title>T20446</title>
<polygon fill="none" stroke="#0058ad" points="0.5,-0.5 0.5,-29.5 269.5,-29.5 269.5,-0.5 0.5,-0.5"/>
<text text-anchor="middle" x="34.5" y="-11.3" font-family="Times,serif" font-size="14.00" fill="#0058ad">r 95 nil</text>
<polyline fill="none" stroke="#0058ad" points="68.5,-0.5 68.5,-29.5 "/>
<text text-anchor="middle" x="102.5" y="-11.3" font-family="Times,serif" font-size="14.00" fill="#0058ad">r 93 64</text>
<polyline fill="none" stroke="#0058ad" points="136.5,-0.5 136.5,-29.5 "/>
<text text-anchor="middle" x="170.5" y="-11.3" font-family="Times,serif" font-size="14.00" fill="#0058ad">r 94 nil</text>
<polyline fill="none" stroke="#0058ad" points="204.5,-0.5 204.5,-29.5 "/>
<text text-anchor="middle" x="237" y="-11.3" font-family="Times,serif" font-size="14.00" fill="#0058ad">w 95 3</text>
</g>
<!-- T20437&#45;&gt;T20446 -->
<g id="edge1" class="edge">
<title>T20437:f3&#45;&gt;T20446:f3</title>
<path fill="none" stroke="#5b00c0" d="M238,-81C238,-62.23 237.31,-55.12 237.08,-40.35"/>
<polygon fill="#5b00c0" stroke="#5b00c0" points="240.58,-39.97 237,-30 233.58,-40.03 240.58,-39.97"/>
<text text-anchor="middle" x="246.5" y="-51.8" font-family="Times,serif" font-size="14.00" fill="#5b00c0">rw</text>
</g>
<!-- T20446&#45;&gt;T20437 -->
<g id="edge2" class="edge">
<title>T20446:f2&#45;&gt;T20437:f2</title>
<path fill="none" stroke="#5b00c0" d="M171,-30C171,-48.77 171,-55.88 171,-70.65"/>
<polygon fill="#5b00c0" stroke="#5b00c0" points="167.5,-71 171,-81 174.5,-71 167.5,-71"/>
<text text-anchor="middle" x="181.5" y="-51.8" font-family="Times,serif" font-size="14.00" fill="#5b00c0">rw</text>
</g>
</g>
</svg>
