<?xml version="1.0" encoding="UTF-8" standalone="no"?>
<!DOCTYPE svg PUBLIC "-//W3C//DTD SVG 1.1//EN"
 "http://www.w3.org/Graphics/SVG/1.1/DTD/svg11.dtd">
<!-- Generated by graphviz version 2.43.0 (0)
 -->
<!-- Title: a_graph Pages: 1 -->
<svg width="566pt" height="605pt"
 viewBox="0.00 0.00 565.50 605.00" xmlns="http://www.w3.org/2000/svg" xmlns:xlink="http://www.w3.org/1999/xlink">
<g id="graph0" class="graph" transform="scale(1 1) rotate(0) translate(4 601)">
<title>a_graph</title>
<polygon fill="white" stroke="transparent" points="-4,4 -4,-601 561.5,-601 561.5,4 -4,4"/>
<!-- T11 -->
<g id="node1" class="node">
<title>T11</title>
<polygon fill="none" stroke="#0058ad" points="173.5,-567.5 173.5,-596.5 288.5,-596.5 288.5,-567.5 173.5,-567.5"/>
<text text-anchor="middle" x="203" y="-578.3" font-family="Times,serif" font-size="14.00" fill="#0058ad">r 8 nil</text>
<polyline fill="none" stroke="#0058ad" points="232.5,-567.5 232.5,-596.5 "/>
<text text-anchor="middle" x="260.5" y="-578.3" font-family="Times,serif" font-size="14.00" fill="#0058ad">w 9 6</text>
</g>
<!-- T29 -->
<g id="node2" class="node">
<title>T29</title>
<polygon fill="none" stroke="#0058ad" points="175.5,-486.5 175.5,-515.5 290.5,-515.5 290.5,-486.5 175.5,-486.5"/>
<text text-anchor="middle" x="203.5" y="-497.3" font-family="Times,serif" font-size="14.00" fill="#0058ad">w 8 1</text>
<polyline fill="none" stroke="#0058ad" points="231.5,-486.5 231.5,-515.5 "/>
<text text-anchor="middle" x="261" y="-497.3" font-family="Times,serif" font-size="14.00" fill="#0058ad">r 9 nil</text>
</g>
<!-- T11&#45;&gt;T29 -->
<g id="edge2" class="edge">
<title>T11:f0&#45;&gt;T29:f0</title>
<path fill="none" stroke="#5b00c0" d="M203,-567C203,-548.23 203,-541.12 203,-526.35"/>
<polygon fill="#5b00c0" stroke="#5b00c0" points="206.5,-526 203,-516 199.5,-526 206.5,-526"/>
<text text-anchor="middle" x="212.5" y="-537.8" font-family="Times,serif" font-size="14.00" fill="#5b00c0">rw</text>
</g>
<!-- T37 -->
<g id="node6" class="node">
<title>T37</title>
<polygon fill="none" stroke="#0058ad" points="245,-81.5 245,-110.5 301,-110.5 301,-81.5 245,-81.5"/>
<text text-anchor="middle" x="273" y="-92.3" font-family="Times,serif" font-size="14.00" fill="#0058ad">w 8 3</text>
</g>
<!-- T11&#45;&gt;T37 -->
<g id="edge1" class="edge">
<title>T11:f0&#45;&gt;T37:f0</title>
<path fill="none" stroke="#5b00c0" d="M172,-582C129.85,-582 0,-544.15 0,-502 0,-502 0,-502 0,-176 0,-66.75 131.84,-147.12 236.52,-113.95"/>
<polygon fill="#5b00c0" stroke="#5b00c0" points="237.98,-117.14 246.24,-110.5 235.64,-110.55 237.98,-117.14"/>
<text text-anchor="middle" x="9.5" y="-335.3" font-family="Times,serif" font-size="14.00" fill="#5b00c0">rw</text>
</g>
<!-- T29&#45;&gt;T11 -->
<g id="edge5" class="edge">
<title>T29:f1&#45;&gt;T11:f1</title>
<path fill="none" stroke="#5b00c0" d="M261,-516C261,-534.77 261,-541.88 261,-556.65"/>
<polygon fill="#5b00c0" stroke="#5b00c0" points="257.5,-557 261,-567 264.5,-557 257.5,-557"/>
<text text-anchor="middle" x="270.5" y="-537.8" font-family="Times,serif" font-size="14.00" fill="#5b00c0">rw</text>
</g>
<!-- T26 -->
<g id="node4" class="node">
<title>T26</title>
<polygon fill="none" stroke="#0058ad" points="138.5,-243.5 138.5,-272.5 303.5,-272.5 303.5,-243.5 138.5,-243.5"/>
<text text-anchor="middle" x="166.5" y="-254.3" font-family="Times,serif" font-size="14.00" fill="#0058ad">w 9 8</text>
<polyline fill="none" stroke="#0058ad" points="194.5,-243.5 194.5,-272.5 "/>
<text text-anchor="middle" x="219.5" y="-254.3" font-family="Times,serif" font-size="14.00" fill="#0058ad">r 9 8</text>
<polyline fill="none" stroke="#0058ad" points="244.5,-243.5 244.5,-272.5 "/>
<text text-anchor="middle" x="274" y="-254.3" font-family="Times,serif" font-size="14.00" fill="#0058ad">r 8 nil</text>
</g>
<!-- T29&#45;&gt;T26 -->
<g id="edge3" class="edge">
<title>T29:f1&#45;&gt;T26:f0</title>
<path fill="none" stroke="#5b00c0" d="M261,-486C261,-434.92 200.73,-462.99 158,-435 130.29,-416.85 114.97,-417.03 101,-387 88.7,-360.56 92.4,-410.74 133,-273 133.52,-271.24 133.56,-269.36 133.46,-267.54"/>
<polygon fill="#5b00c0" stroke="#5b00c0" points="136.81,-268.59 137,-258 130.24,-266.16 136.81,-268.59"/>
<text text-anchor="middle" x="110.5" y="-375.8" font-family="Times,serif" font-size="14.00" fill="#5b00c0">rw</text>
</g>
<!-- T19 -->
<g id="node8" class="node">
<title>T19</title>
<polygon fill="none" stroke="#0058ad" points="392.5,-243.5 392.5,-272.5 557.5,-272.5 557.5,-243.5 392.5,-243.5"/>
<text text-anchor="middle" x="420.5" y="-254.3" font-family="Times,serif" font-size="14.00" fill="#0058ad">w 9 7</text>
<polyline fill="none" stroke="#0058ad" points="448.5,-243.5 448.5,-272.5 "/>
<text text-anchor="middle" x="473.5" y="-254.3" font-family="Times,serif" font-size="14.00" fill="#0058ad">r 9 7</text>
<polyline fill="none" stroke="#0058ad" points="498.5,-243.5 498.5,-272.5 "/>
<text text-anchor="middle" x="528" y="-254.3" font-family="Times,serif" font-size="14.00" fill="#0058ad">r 8 nil</text>
</g>
<!-- T29&#45;&gt;T19 -->
<g id="edge6" class="edge">
<title>T29:f1&#45;&gt;T19:f0</title>
<path fill="none" stroke="#5b00c0" d="M292,-501C323.1,-501 403.17,-486.73 428,-468 461.05,-443.07 461.62,-426.51 474,-387 482.38,-360.25 488.44,-349.59 477,-324 474.26,-317.88 440.36,-294.96 426.17,-281.38"/>
<polygon fill="#5b00c0" stroke="#5b00c0" points="428.75,-278.98 420,-273 423.11,-283.13 428.75,-278.98"/>
<text text-anchor="middle" x="487.5" y="-375.8" font-family="Times,serif" font-size="14.00" fill="#5b00c0">rw</text>
</g>
<!-- T15 -->
<g id="node9" class="node">
<title>T15</title>
<polygon fill="none" stroke="#0058ad" points="166.5,-405.5 166.5,-434.5 387.5,-434.5 387.5,-405.5 166.5,-405.5"/>
<text text-anchor="middle" x="196" y="-416.3" font-family="Times,serif" font-size="14.00" fill="#0058ad">r 7 nil</text>
<polyline fill="none" stroke="#0058ad" points="225.5,-405.5 225.5,-434.5 "/>
<text text-anchor="middle" x="253.5" y="-416.3" font-family="Times,serif" font-size="14.00" fill="#0058ad">w 9 4</text>
<polyline fill="none" stroke="#0058ad" points="281.5,-405.5 281.5,-434.5 "/>
<text text-anchor="middle" x="306.5" y="-416.3" font-family="Times,serif" font-size="14.00" fill="#0058ad">r 9 4</text>
<polyline fill="none" stroke="#0058ad" points="331.5,-405.5 331.5,-434.5 "/>
<text text-anchor="middle" x="359.5" y="-416.3" font-family="Times,serif" font-size="14.00" fill="#0058ad">w 9 5</text>
</g>
<!-- T29&#45;&gt;T15 -->
<g id="edge4" class="edge">
<title>T29:f1&#45;&gt;T15:f3</title>
<path fill="none" stroke="#5b00c0" d="M292,-501C330.66,-501 355.64,-480.87 359.48,-444.99"/>
<polygon fill="#5b00c0" stroke="#5b00c0" points="362.98,-445.17 360,-435 355.99,-444.81 362.98,-445.17"/>
<text text-anchor="middle" x="367.5" y="-456.8" font-family="Times,serif" font-size="14.00" fill="#5b00c0">rw</text>
</g>
<!-- T44 -->
<g id="node3" class="node">
<title>T44</title>
<polygon fill="none" stroke="#0058ad" points="248.5,-0.5 248.5,-29.5 413.5,-29.5 413.5,-0.5 248.5,-0.5"/>
<text text-anchor="middle" x="273.5" y="-11.3" font-family="Times,serif" font-size="14.00" fill="#0058ad">r 8 3</text>
<polyline fill="none" stroke="#0058ad" points="298.5,-0.5 298.5,-29.5 "/>
<text text-anchor="middle" x="326.5" y="-11.3" font-family="Times,serif" font-size="14.00" fill="#0058ad">w 6 2</text>
<polyline fill="none" stroke="#0058ad" points="354.5,-0.5 354.5,-29.5 "/>
<text text-anchor="middle" x="384" y="-11.3" font-family="Times,serif" font-size="14.00" fill="#0058ad">r 7 nil</text>
</g>
<!-- T38 -->
<g id="node5" class="node">
<title>T38</title>
<polygon fill="none" stroke="#0058ad" points="234.5,-324.5 234.5,-353.5 467.5,-353.5 467.5,-324.5 234.5,-324.5"/>
<text text-anchor="middle" x="262.5" y="-335.3" font-family="Times,serif" font-size="14.00" fill="#0058ad">w 7 1</text>
<polyline fill="none" stroke="#0058ad" points="290.5,-324.5 290.5,-353.5 "/>
<text text-anchor="middle" x="320" y="-335.3" font-family="Times,serif" font-size="14.00" fill="#0058ad">r 9 nil</text>
<polyline fill="none" stroke="#0058ad" points="349.5,-324.5 349.5,-353.5 "/>
<text text-anchor="middle" x="379" y="-335.3" font-family="Times,serif" font-size="14.00" fill="#0058ad">r 9 nil</text>
<polyline fill="none" stroke="#0058ad" points="408.5,-324.5 408.5,-353.5 "/>
<text text-anchor="middle" x="438" y="-335.3" font-family="Times,serif" font-size="14.00" fill="#0058ad">r 9 nil</text>
</g>
<!-- T44&#45;&gt;T38 -->
<g id="edge7" class="edge">
<title>T44:f2&#45;&gt;T38:f0</title>
<path fill="none" stroke="#5b00c0" d="M384,-30C384,-102.66 386.2,-123.49 362,-192 347.99,-231.67 338.95,-239.88 313,-273 295.62,-295.18 269.39,-293 263.3,-313.92"/>
<polygon fill="#5b00c0" stroke="#5b00c0" points="259.81,-313.63 262,-324 266.75,-314.53 259.81,-313.63"/>
<text text-anchor="middle" x="380.5" y="-173.3" font-family="Times,serif" font-size="14.00" fill="#5b00c0">rw</text>
</g>
<!-- T26&#45;&gt;T29 -->
<g id="edge10" class="edge">
<title>T26:f2&#45;&gt;T29:f0</title>
<path fill="none" stroke="#5b00c0" d="M274,-273C274,-280.82 178.55,-365.64 174,-372 164.52,-385.26 161.65,-389.11 158,-405 149.19,-443.37 133.84,-491.42 163.76,-499.74"/>
<polygon fill="#5b00c0" stroke="#5b00c0" points="163.65,-503.26 174,-501 164.5,-496.31 163.65,-503.26"/>
<text text-anchor="middle" x="183.5" y="-375.8" font-family="Times,serif" font-size="14.00" fill="#5b00c0">rw</text>
</g>
<!-- T26&#45;&gt;T37 -->
<g id="edge8" class="edge">
<title>T26:f2&#45;&gt;T37:f0</title>
<path fill="none" stroke="#5b00c0" d="M274,-243C274,-200 273.57,-149.93 273.27,-120.72"/>
<polygon fill="#5b00c0" stroke="#5b00c0" points="276.77,-120.57 273.17,-110.6 269.77,-120.64 276.77,-120.57"/>
<text text-anchor="middle" x="282.5" y="-173.3" font-family="Times,serif" font-size="14.00" fill="#5b00c0">rw</text>
</g>
<!-- T28 -->
<g id="node7" class="node">
<title>T28</title>
<polygon fill="none" stroke="#0058ad" points="70,-162.5 70,-191.5 238,-191.5 238,-162.5 70,-162.5"/>
<text text-anchor="middle" x="99.5" y="-173.3" font-family="Times,serif" font-size="14.00" fill="#0058ad">r 7 nil</text>
<polyline fill="none" stroke="#0058ad" points="129,-162.5 129,-191.5 "/>
<text text-anchor="middle" x="154" y="-173.3" font-family="Times,serif" font-size="14.00" fill="#0058ad">r 9 8</text>
<polyline fill="none" stroke="#0058ad" points="179,-162.5 179,-191.5 "/>
<text text-anchor="middle" x="208.5" y="-173.3" font-family="Times,serif" font-size="14.00" fill="#0058ad">r 8 nil</text>
</g>
<!-- T26&#45;&gt;T28 -->
<g id="edge9" class="edge">
<title>T26:f0&#45;&gt;T28:f1</title>
<path fill="none" stroke="#c000a5" d="M166,-243C166,-223.53 157.61,-217.25 154.86,-202.1"/>
<polygon fill="#c000a5" stroke="#c000a5" points="158.34,-201.67 154,-192 151.36,-202.26 158.34,-201.67"/>
<text text-anchor="middle" x="172.5" y="-213.8" font-family="Times,serif" font-size="14.00" fill="#c000a5">wr</text>
</g>
<!-- T38&#45;&gt;T11 -->
<g id="edge13" class="edge">
<title>T38:f1&#45;&gt;T11:f1</title>
<path fill="none" stroke="#5b00c0" d="M320,-354C320,-379.3 353.74,-356.85 374,-372 388.32,-382.7 391.64,-387.94 397,-405 423.52,-489.44 384.99,-575.37 300.03,-581.64"/>
<polygon fill="#5b00c0" stroke="#5b00c0" points="299.87,-578.14 290,-582 300.12,-585.13 299.87,-578.14"/>
<text text-anchor="middle" x="414.5" y="-456.8" font-family="Times,serif" font-size="14.00" fill="#5b00c0">rw</text>
</g>
<!-- T38&#45;&gt;T26 -->
<g id="edge11" class="edge">
<title>T38:f1&#45;&gt;T26:f0</title>
<path fill="none" stroke="#5b00c0" d="M320,-324C320,-291.61 195.69,-305.35 170.44,-282.34"/>
<polygon fill="#5b00c0" stroke="#5b00c0" points="173.46,-280.53 166,-273 167.14,-283.53 173.46,-280.53"/>
<text text-anchor="middle" x="303.5" y="-294.8" font-family="Times,serif" font-size="14.00" fill="#5b00c0">rw</text>
</g>
<!-- T38&#45;&gt;T19 -->
<g id="edge14" class="edge">
<title>T38:f1&#45;&gt;T19:f0</title>
<path fill="none" stroke="#5b00c0" d="M320,-324C320,-292.74 361.02,-321.8 388,-306 402.19,-297.69 414.26,-294.62 418.44,-283.09"/>
<polygon fill="#5b00c0" stroke="#5b00c0" points="421.93,-283.42 420,-273 415.01,-282.35 421.93,-283.42"/>
<text text-anchor="middle" x="422.5" y="-294.8" font-family="Times,serif" font-size="14.00" fill="#5b00c0">rw</text>
</g>
<!-- T38&#45;&gt;T15 -->
<g id="edge12" class="edge">
<title>T38:f1&#45;&gt;T15:f3</title>
<path fill="none" stroke="#5b00c0" d="M320,-354C320,-378.76 349.54,-377.35 357.85,-394.75"/>
<polygon fill="#5b00c0" stroke="#5b00c0" points="354.52,-395.93 360,-405 361.37,-394.49 354.52,-395.93"/>
<text text-anchor="middle" x="360.5" y="-375.8" font-family="Times,serif" font-size="14.00" fill="#5b00c0">rw</text>
</g>
<!-- T37&#45;&gt;T44 -->
<g id="edge15" class="edge">
<title>T37:f0&#45;&gt;T44:f0</title>
<path fill="none" stroke="#c000a5" d="M273,-81.32C273,-70.45 273,-55.01 273,-40.14"/>
<polygon fill="#c000a5" stroke="#c000a5" points="276.5,-40 273,-30 269.5,-40 276.5,-40"/>
<text text-anchor="middle" x="282.5" y="-51.8" font-family="Times,serif" font-size="14.00" fill="#c000a5">wr</text>
</g>
<!-- T28&#45;&gt;T29 -->
<g id="edge17" class="edge">
<title>T28:f2&#45;&gt;T29:f0</title>
<path fill="none" stroke="#5b00c0" d="M209,-192C209,-217.87 116.49,-197.22 94,-210 70.4,-223.41 55,-229.86 55,-257 55,-421 55,-421 55,-421 55,-481.37 104.6,-499.15 164,-500.86"/>
<polygon fill="#5b00c0" stroke="#5b00c0" points="163.95,-504.36 174,-501 164.05,-497.36 163.95,-504.36"/>
<text text-anchor="middle" x="64.5" y="-335.3" font-family="Times,serif" font-size="14.00" fill="#5b00c0">rw</text>
</g>
<!-- T28&#45;&gt;T38 -->
<g id="edge18" class="edge">
<title>T28:f0&#45;&gt;T38:f0</title>
<path fill="none" stroke="#5b00c0" d="M99,-192C99,-228.33 89.29,-243.15 110,-273 143.37,-321.08 168.03,-337.18 222.8,-338.85"/>
<polygon fill="#5b00c0" stroke="#5b00c0" points="222.95,-342.35 233,-339 223.05,-335.35 222.95,-342.35"/>
<text text-anchor="middle" x="119.5" y="-254.3" font-family="Times,serif" font-size="14.00" fill="#5b00c0">rw</text>
</g>
<!-- T28&#45;&gt;T37 -->
<g id="edge16" class="edge">
<title>T28:f2&#45;&gt;T37:f0</title>
<path fill="none" stroke="#5b00c0" d="M209,-162C209,-150.72 228.51,-131.77 245.99,-117.07"/>
<polygon fill="#5b00c0" stroke="#5b00c0" points="248.29,-119.7 253.8,-110.65 243.85,-114.3 248.29,-119.7"/>
<text text-anchor="middle" x="241.5" y="-132.8" font-family="Times,serif" font-size="14.00" fill="#5b00c0">rw</text>
</g>
<!-- T19&#45;&gt;T29 -->
<g id="edge20" class="edge">
<title>T19:f2&#45;&gt;T29:f0</title>
<path fill="none" stroke="#5b00c0" d="M528,-273C528,-315.54 506.42,-323.27 477,-354 467.28,-364.15 461.44,-362.59 451,-372 423.61,-396.7 428.25,-415.42 397,-435 324.55,-480.39 212.64,-403.64 203.59,-475.89"/>
<polygon fill="#5b00c0" stroke="#5b00c0" points="200.09,-475.81 203,-486 207.07,-476.22 200.09,-475.81"/>
<text text-anchor="middle" x="460.5" y="-375.8" font-family="Times,serif" font-size="14.00" fill="#5b00c0">rw</text>
</g>
<!-- T19&#45;&gt;T37 -->
<g id="edge19" class="edge">
<title>T19:f2&#45;&gt;T37:f0</title>
<path fill="none" stroke="#5b00c0" d="M528,-243C528,-157.71 413.16,-240.5 343,-192 316.4,-173.61 296.12,-141.73 284.4,-119.79"/>
<polygon fill="#5b00c0" stroke="#5b00c0" points="287.45,-118.07 279.77,-110.78 281.23,-121.27 287.45,-118.07"/>
<text text-anchor="middle" x="352.5" y="-173.3" font-family="Times,serif" font-size="14.00" fill="#5b00c0">rw</text>
</g>
<!-- T15&#45;&gt;T38 -->
<g id="edge21" class="edge">
<title>T15:f0&#45;&gt;T38:f0</title>
<path fill="none" stroke="#5b00c0" d="M196,-405C196,-375.05 198.67,-346.1 223.02,-340.12"/>
<polygon fill="#5b00c0" stroke="#5b00c0" points="223.45,-343.59 233,-339 222.67,-336.64 223.45,-343.59"/>
<text text-anchor="middle" x="208.5" y="-375.8" font-family="Times,serif" font-size="14.00" fill="#5b00c0">rw</text>
</g>
</g>
</svg>
